<svg width="34" height="34" viewBox="0 0 34 34" fill="none" xmlns="http://www.w3.org/2000/svg">
<path d="M33.1356 16H31.3319L27.298 7.84168C27.1206 7.48634 26.8654 7.19138 26.5581 6.98655C26.2508 6.78172 25.9022 6.67426 25.5475 6.67501H22.1908L20.3971 1.46668C20.2485 1.03275 19.9904 0.660704 19.6563 0.399072C19.3222 0.13744 18.9277 -0.00162677 18.5242 1.43595e-05H15.4758C15.0723 -0.00162677 14.6778 0.13744 14.3437 0.399072C14.0096 0.660704 13.7515 1.03275 13.6029 1.46668L11.8049 6.66668H8.44814C8.09346 6.66593 7.74489 6.77339 7.43757 6.97822C7.13025 7.18305 6.87505 7.478 6.69771 7.83334L2.66381 16H0.864407C0.635152 16 0.415287 16.1054 0.253179 16.2929C0.0910712 16.4804 0 16.7348 0 17C0 17.2652 0.0910712 17.5196 0.253179 17.7071C0.415287 17.8946 0.635152 18 0.864407 18H2.30508V31.6667C2.30508 32.2855 2.51758 32.879 2.89584 33.3166C3.27409 33.7542 3.78711 34 4.32203 34H7.77966C8.31459 34 8.82761 33.7542 9.20586 33.3166C9.58411 32.879 9.79661 32.2855 9.79661 31.6667V28.6667H24.2034V31.6667C24.2034 32.2855 24.4159 32.879 24.7941 33.3166C25.1724 33.7542 25.6854 34 26.2203 34H29.678C30.2129 34 30.7259 33.7542 31.1042 33.3166C31.4824 32.879 31.6949 32.2855 31.6949 31.6667V18H33.1356C33.3648 18 33.5847 17.8946 33.7468 17.7071C33.9089 17.5196 34 17.2652 34 17C34 16.7348 33.9089 16.4804 33.7468 16.2929C33.5847 16.1054 33.3648 16 33.1356 16ZM15.2078 2.21001C15.2291 2.14799 15.2661 2.09482 15.3139 2.05737C15.3617 2.01993 15.4181 1.99995 15.4758 2.00001H18.5242C18.5819 1.99995 18.6383 2.01993 18.6861 2.05737C18.7339 2.09482 18.7709 2.14799 18.7922 2.21001L20.3337 6.66668H13.6663L15.2078 2.21001ZM8.1989 8.83334C8.22416 8.78272 8.26049 8.74067 8.30423 8.71142C8.34798 8.68217 8.39761 8.66674 8.44814 8.66668H25.5519C25.6024 8.66674 25.652 8.68217 25.6958 8.71142C25.7395 8.74067 25.7758 8.78272 25.8011 8.83334L29.3408 16H4.65915L8.1989 8.83334ZM8.0678 31.6667C8.0678 31.7551 8.03744 31.8399 7.9834 31.9024C7.92937 31.9649 7.85608 32 7.77966 32H4.32203C4.24562 32 4.17233 31.9649 4.11829 31.9024C4.06426 31.8399 4.0339 31.7551 4.0339 31.6667V28.6667H8.0678V31.6667ZM29.678 32H26.2203C26.1439 32 26.0706 31.9649 26.0166 31.9024C25.9626 31.8399 25.9322 31.7551 25.9322 31.6667V28.6667H29.9661V31.6667C29.9661 31.7551 29.9357 31.8399 29.8817 31.9024C29.8277 31.9649 29.7544 32 29.678 32ZM29.9661 26.6667H4.0339V18H29.9661V26.6667ZM6.91525 22.3333C6.91525 22.0681 7.00633 21.8138 7.16843 21.6262C7.33054 21.4387 7.55041 21.3333 7.77966 21.3333H10.0847C10.314 21.3333 10.5339 21.4387 10.696 21.6262C10.8581 21.8138 10.9492 22.0681 10.9492 22.3333C10.9492 22.5986 10.8581 22.8529 10.696 23.0404C10.5339 23.228 10.314 23.3333 10.0847 23.3333H7.77966C7.55041 23.3333 7.33054 23.228 7.16843 23.0404C7.00633 22.8529 6.91525 22.5986 6.91525 22.3333ZM23.0508 22.3333C23.0508 22.0681 23.1419 21.8138 23.304 21.6262C23.4661 21.4387 23.686 21.3333 23.9153 21.3333H26.2203C26.4496 21.3333 26.6695 21.4387 26.8316 21.6262C26.9937 21.8138 27.0847 22.0681 27.0847 22.3333C27.0847 22.5986 26.9937 22.8529 26.8316 23.0404C26.6695 23.228 26.4496 23.3333 26.2203 23.3333H23.9153C23.686 23.3333 23.4661 23.228 23.304 23.0404C23.1419 22.8529 23.0508 22.5986 23.0508 22.3333Z" fill="#FD5901"/>
</svg>
