<svg width="34" height="30" viewBox="0 0 34 30" fill="none" xmlns="http://www.w3.org/2000/svg">
<path d="M27.5723 1.57343C28.6824 2.42671 29.4474 3.80495 29.7602 5.24819C29.7981 5.25994 29.835 5.27443 29.8707 5.29152L33.3472 6.86808C33.5415 6.95556 33.7062 7.09572 33.8219 7.27202C33.9376 7.44832 33.9994 7.6534 34 7.86302V28.4733C33.9988 28.6445 33.9571 28.8131 33.8782 28.9659C33.7993 29.1186 33.6854 29.2514 33.5454 29.3538C33.4054 29.4561 33.2432 29.5253 33.0713 29.5559C32.8995 29.5864 32.7228 29.5775 32.555 29.5299L22.9177 26.8634L11.4597 29.9599C11.253 30.0155 11.0345 30.0132 10.829 29.9532L0.8058 27.0284C0.574125 26.9617 0.370583 26.8235 0.225412 26.6344C0.0802417 26.4452 0.00118942 26.2152 0 25.9785L0 4.99821C0 4.26492 0.7276 3.73829 1.4535 3.94494L11.1469 6.71309L16.0735 5.23486C16.1413 5.21523 16.2107 5.2013 16.2809 5.19319C16.4713 4.09993 17.0034 3.05 17.8959 2.02674C18.955 0.810151 20.8131 0.0968651 22.6236 0.0118707C24.5021 -0.0764567 25.9369 0.31685 27.5706 1.57177L27.5723 1.57343ZM2.2661 6.46978V25.1602L10.5451 27.575V8.83129L2.2661 6.46978ZM16.2214 7.49304L12.8112 8.51464V27.3117L21.4217 24.9885V19.4972C21.4217 18.8906 21.93 18.399 22.5556 18.399C23.1812 18.399 23.6878 18.8906 23.6878 19.4989V24.7936L31.7339 27.0184V8.5613L29.8299 7.69469C29.7976 7.87802 29.7568 8.058 29.7058 8.23299C29.3361 9.51084 28.716 10.7058 27.88 11.7511L23.6691 16.9057C23.5582 17.0413 23.4166 17.1496 23.2556 17.222C23.0945 17.2945 22.9184 17.3291 22.7413 17.3231C22.5642 17.3171 22.3909 17.2707 22.2353 17.1875C22.0797 17.1044 21.9461 16.9868 21.845 16.8441L17.9095 11.2561C17.2601 10.3662 16.8045 9.5729 16.5478 8.86295C16.3867 8.41984 16.2772 7.96028 16.2214 7.49304ZM22.7324 2.20839C21.4982 2.26672 20.23 2.75336 19.6265 3.44498C18.9006 4.27825 18.5436 5.0582 18.4722 5.84815C18.3872 6.79975 18.445 7.47138 18.6864 8.13633C18.8649 8.62797 19.2202 9.25126 19.7693 10.0029L22.848 14.3726L26.095 10.3978C26.7501 9.57716 27.2357 8.63918 27.5247 7.63636C27.9327 6.23646 27.3173 4.17993 26.1647 3.29665C24.9832 2.38838 24.0907 2.1434 22.7341 2.20839H22.7324ZM22.967 3.36998C24.8438 3.36998 26.367 4.84488 26.367 6.66476C26.3646 7.09999 26.2747 7.53048 26.1024 7.93164C25.9302 8.33279 25.6791 8.69675 25.3633 9.00273C25.0476 9.3087 24.6734 9.55068 24.2623 9.71486C23.8511 9.87903 23.411 9.96218 22.967 9.95954C21.0902 9.95954 19.567 8.48464 19.567 6.66476C19.567 4.84488 21.0902 3.36998 22.967 3.36998ZM22.967 5.5665C22.819 5.56562 22.6722 5.59334 22.5352 5.64805C22.3981 5.70277 22.2733 5.78343 22.168 5.88541C22.0627 5.98739 21.979 6.10871 21.9215 6.24243C21.864 6.37615 21.834 6.51966 21.8331 6.66476C21.8331 7.27139 22.3414 7.76302 22.967 7.76302C23.115 7.76368 23.2617 7.73575 23.3987 7.68083C23.5357 7.62591 23.6603 7.54507 23.7655 7.44294C23.8706 7.3408 23.9542 7.21936 24.0115 7.08555C24.0687 6.95175 24.0985 6.8082 24.0992 6.6631C24.097 6.37063 23.9765 6.09097 23.7643 5.88541C23.5521 5.67985 23.2653 5.56517 22.967 5.5665Z" fill="#FD5901"/>
</svg>
