<svg width="34" height="34" viewBox="0 0 34 34" fill="none" xmlns="http://www.w3.org/2000/svg">
<path d="M5.25951 0C2.96027 0 0.658157 1.73663 0.658157 5.20989L5.25951 14.4719L9.85799 5.20989C9.85799 1.73663 7.55875 0 5.25951 0ZM25.5431 2.82203C25.0473 2.84301 24.5659 2.9378 24.1636 3.02463L24.4366 4.29816C24.839 4.20771 25.2557 4.15055 25.6078 4.1245L25.5431 2.82203ZM5.25951 2.89439C6.53128 2.89439 7.55875 3.9313 7.55875 5.20989C7.55875 6.49066 6.53128 7.5254 5.25951 7.5254C3.9899 7.5254 2.96027 6.49066 2.96027 5.20989C2.96027 3.9313 3.9899 2.89439 5.25951 2.89439ZM26.9729 2.90886L26.7574 4.18962C27.1095 4.26415 27.4615 4.3575 27.7705 4.54418L28.3956 3.4009C27.9573 3.16573 27.4687 2.95444 26.9729 2.90886ZM22.8415 3.39367C22.4032 3.56588 21.9649 3.72001 21.5913 3.87124L22.1014 5.06517C22.4966 4.89585 22.9134 4.74824 23.2654 4.62378L22.8415 3.39367ZM29.574 4.36329L28.5896 5.20989C28.8483 5.50802 29.0494 5.8756 29.2075 6.17228L30.3643 5.58616C30.12 5.11221 29.9045 4.7533 29.574 4.36329ZM20.3914 4.42841C19.9531 4.65345 19.5938 4.85388 19.2058 5.0507L19.8381 6.19398C20.2118 5.97691 20.6213 5.76706 20.9518 5.60064L20.3914 4.42841ZM18.0706 5.72365C17.6898 5.94796 17.3161 6.17228 16.9497 6.4183L17.6538 7.50369C18.0059 7.27214 18.3724 7.05506 18.7316 6.83799L18.0706 5.72365ZM30.8098 7.01888C30.3859 7.09124 29.9548 7.1419 29.5309 7.19255C29.5596 7.55435 29.538 7.94509 29.4662 8.249L30.7236 8.54567C30.7954 8.02468 30.8601 7.48922 30.8098 7.01888ZM15.8576 7.1419C15.4983 7.38792 15.1462 7.64118 14.787 7.8872L15.5342 8.95089C15.8791 8.69763 16.2312 8.45884 16.5833 8.21282L15.8576 7.1419ZM13.7308 8.66868C13.3715 8.92918 12.9979 9.21862 12.6889 9.4574L13.4721 10.4921C13.8673 10.2027 14.1403 9.98563 14.4996 9.7179L13.7308 8.66868ZM29.0351 9.24756C28.8195 9.58041 28.568 9.91327 28.3166 10.1665L29.2578 11.071C29.5668 10.702 29.8973 10.3257 30.1272 9.94945L29.0351 9.24756ZM11.6615 10.2678C11.3094 10.5428 10.9573 10.825 10.6484 11.0855L11.4675 12.0913C11.8052 11.8091 12.15 11.5197 12.4662 11.2881L11.6615 10.2678ZM27.4256 10.9987C27.0951 11.2664 26.7502 11.5269 26.4341 11.744L27.1741 12.8149C27.5549 12.5544 27.9286 12.2722 28.2519 12.0117L27.4256 10.9987ZM9.64962 11.9321C9.31192 12.2071 8.98859 12.4965 8.65807 12.7787L9.49873 13.77C9.82206 13.4878 10.1454 13.2056 10.4759 12.9307L9.64962 11.9321ZM25.3779 12.4386C25.0114 12.6557 24.6306 12.88 24.2857 13.0681L24.9036 14.2187C25.2916 13.9799 25.7299 13.77 26.0533 13.553L25.3779 12.4386ZM7.67371 13.6398C7.35038 13.9292 7.03424 14.2187 6.7109 14.5153L7.5803 15.485C7.89645 15.1955 8.21978 14.9061 8.53592 14.6166L7.67371 13.6398ZM23.1576 13.6687C22.7768 13.8569 22.396 14.0522 22.0152 14.2404L22.5685 15.4126C23.0139 15.1955 23.3445 15.0146 23.7468 14.8265L23.1576 13.6687ZM20.8584 14.7831C20.4632 14.964 20.0824 15.1376 19.68 15.3041L20.2046 16.498C20.5997 16.3243 20.9949 16.1434 21.3901 15.9625L20.8584 14.7831ZM5.76247 15.4126C5.39603 15.7382 5.14095 15.9915 4.80685 16.3171L5.71936 17.2578C6.05706 16.9322 6.33009 16.65 6.64624 16.375L5.76247 15.4126ZM18.5017 15.8323C18.1065 15.9987 17.7113 16.1724 17.3161 16.3388L17.8191 17.5472C18.2215 17.3808 18.6167 17.2071 19.0118 17.0335L18.5017 15.8323ZM16.1234 16.8453C15.7282 17.019 15.3331 17.1926 14.9307 17.3518L15.4336 18.5602C15.8288 18.3938 16.2312 18.2202 16.6264 18.0537L16.1234 16.8453ZM29.4015 17.3663C27.1023 17.3663 24.803 19.1029 24.803 22.5762L29.4015 31.8382L34 22.5762C34 19.1029 31.7008 17.3663 29.4015 17.3663ZM13.738 17.8584C13.3284 18.0465 12.8973 18.2202 12.5452 18.3721L13.0554 19.5733C13.4793 19.3924 13.8817 19.2187 14.2409 19.0595L13.738 17.8584ZM11.3525 18.8859C10.9645 19.0668 10.5118 19.2694 10.1669 19.4286L10.6986 20.6153C11.1226 20.4271 11.4962 20.239 11.8698 20.0798L11.3525 18.8859ZM8.9814 19.9713C8.57904 20.1666 8.1623 20.3692 7.80304 20.5501L8.38504 21.7151C8.77304 21.5125 9.1754 21.3244 9.52747 21.1507L8.9814 19.9713ZM29.4015 20.2607C30.6733 20.2607 31.7008 21.2954 31.7008 22.5762C31.7008 23.857 30.6733 24.8917 29.4015 24.8917C28.1298 24.8917 27.1023 23.857 27.1023 22.5762C27.1023 21.2954 28.1298 20.2607 29.4015 20.2607ZM6.63905 21.1507C6.25824 21.3606 5.87743 21.5776 5.48943 21.802L6.13609 22.9308C6.50254 22.7137 6.87616 22.5111 7.24979 22.3085L6.63905 21.1507ZM4.36137 22.5038C3.95828 22.7354 3.56885 23.0465 3.2333 23.2709L4.01648 24.3128C4.37358 24.0523 4.75799 23.7846 5.06551 23.5965L4.36137 22.5038ZM2.21302 24.1392C1.86813 24.4576 1.52828 24.8266 1.26458 25.1377L2.24894 25.9843C2.52557 25.6443 2.76627 25.391 3.0896 25.1016L2.21302 24.1392ZM17.8622 24.2332L17.9772 25.5285C18.3508 25.4634 18.7244 25.5068 19.0981 25.5647L19.3208 24.2839C18.8466 24.2115 18.3436 24.1609 17.8622 24.2332ZM15.1893 24.9568L15.6779 26.1652C16.0516 25.9988 16.4396 25.8686 16.8347 25.7456C16.6982 25.3331 16.5976 24.9134 16.4899 24.4937C16.0372 24.624 15.5845 24.7976 15.1893 24.9568ZM20.7578 24.8917L20.0249 25.9626C20.3267 26.1869 20.6213 26.4257 20.8584 26.7224L21.8356 25.8686C21.4691 25.4923 21.1889 25.1377 20.7578 24.8917ZM13.9679 25.5429C13.5727 25.7456 13.1919 25.9771 12.8111 26.2014L13.4649 27.323C13.8385 27.1204 14.205 26.8816 14.5714 26.6862L13.9679 25.5429ZM0.474937 26.3389C0.257946 26.8092 0.0819104 27.3158 0 27.7644L1.27177 27.9887C1.34937 27.5763 1.46074 27.2796 1.62384 26.925C1.22937 26.7514 0.852874 26.5415 0.474937 26.3389ZM11.6902 26.9033C11.3238 27.1421 10.9645 27.3809 10.6052 27.6269L11.3238 28.7123C11.683 28.4735 12.0351 28.2275 12.3943 27.9887L11.6902 26.9033ZM22.6619 26.9901L21.5769 27.6993C21.8068 28.0466 22.0296 28.4084 22.238 28.7774L23.3588 28.1262C23.1074 27.721 22.9277 27.3592 22.6619 26.9901ZM9.53466 28.365C9.1754 28.6038 8.81614 28.8353 8.46407 29.0886L9.18259 30.174C9.52747 29.9207 9.89391 29.6819 10.2604 29.4359L9.53466 28.365ZM1.28614 29.0524C0.870118 29.1392 0.450507 29.2116 0.0323331 29.2912C0.107777 29.7977 0.309679 30.2897 0.492181 30.6805L1.65976 30.1161C1.50385 29.7543 1.35583 29.378 1.28614 29.0524ZM23.9983 29.255L22.8774 29.9062C23.1002 30.297 23.3588 30.7167 23.5672 31.0495L24.6522 30.3476C24.4079 29.9641 24.1995 29.6023 23.9983 29.255ZM7.40068 29.7977C7.04142 30.022 6.68935 30.2391 6.31572 30.4489L6.9552 31.585C7.33601 31.3607 7.71682 31.1363 8.08326 30.8976L7.40068 29.7977ZM2.27768 30.9772L1.39391 31.9323C1.79341 32.3158 2.28631 32.5691 2.82375 32.6848L3.11116 31.4186C2.79214 31.3534 2.49396 31.1942 2.27768 30.9772ZM5.22358 30.9989C4.86361 31.1653 4.48998 31.2955 4.10271 31.3751L4.39729 32.6487C4.85858 32.5546 5.29256 32.3809 5.72654 32.2L5.22358 30.9989ZM25.3635 31.3462L24.3647 32.1639C24.6737 32.5474 25.0545 32.9164 25.385 33.1769L26.1826 32.1494C25.8664 31.9034 25.5934 31.6067 25.3635 31.3462ZM27.0951 32.6125L26.7718 33.8788C27.3394 33.9946 27.7633 34.0307 28.295 33.9728L28.1369 32.6776C27.7849 32.7355 27.44 32.6993 27.0951 32.6125Z" fill="#FD5901"/>
</svg>
