<svg width="34" height="34" viewBox="0 0 34 34" fill="none" xmlns="http://www.w3.org/2000/svg">
<path d="M22.049 6.62293C21.9347 6.20399 21.6598 5.84725 21.284 5.6304C20.9083 5.41356 20.4622 5.35418 20.043 5.4652L14.263 7.01452L6.715 0L4.624 0.561843L9.146 8.37656L3.723 9.82374L1.581 8.15523L0 8.58087L2.822 13.4842L20.876 8.64897C21.76 8.39359 22.27 7.49124 22.049 6.62293ZM32.3 13.5694L30.6 16.9745H22.1L20.4 13.5694L22.1 11.8668H25.5V8.46169H27.2V11.8668H30.6L32.3 13.5694ZM34 30.5949V34H0V30.5949H22.1V18.677H30.6V30.5949H34Z" fill="#FD5901"/>
</svg>
