<svg width="124" height="45" viewBox="0 0 124 45" fill="none" xmlns="http://www.w3.org/2000/svg">
<path d="M44.6606 0.631324C37.3342 0.611885 29.0819 1.20119 19.4778 2.68008C18.3442 2.83867 7.4226 9.06858 4.47811 13.3684C1.53363 17.6685 0.526389 25.8536 0.526389 25.8536C-0.26856 29.2055 0.214344 34.7458 0.436101 35.2845C0.735357 36.4508 2.42603 37.4297 5.32984 38.1374C5.66849 32.7516 10.1318 28.5548 15.5286 28.5482C21.1792 28.5482 25.7596 33.1291 25.7596 38.7792C25.756 39.2304 25.7225 39.6808 25.6594 40.1276C25.8103 40.1297 25.9816 40.1337 26.1249 40.1353L87.3232 40.6443C87.2073 40.0293 87.148 39.405 87.1459 38.7792C87.1459 33.1291 91.7268 28.5482 97.3769 28.5482C103.027 28.5482 107.608 33.1291 107.608 38.7792C107.608 39.4616 107.54 40.1424 107.404 40.811L123.31 40.9433C123.647 35.1085 125.065 28.9807 121.513 23.878C120.118 21.8727 113.346 18.2412 96.184 15.5243C87.3168 11.0713 78.6626 6.0223 69.2381 3.12897C61.9715 1.68767 54.0808 0.656134 44.6606 0.631324ZM40.2621 3.69653C41.7962 3.70779 43.2035 3.77071 44.3581 3.90371L46.2219 16.271C35.6251 14.9683 24.8271 13.7994 19.1189 9.23714C19.2085 7.83037 21.1549 5.79389 23.3408 5.01531C24.5787 4.57435 33.6145 3.64794 40.2623 3.69653H40.2621ZM49.1183 3.78554C55.5157 3.85307 64.9845 4.47358 71.4991 7.35105C74.6201 8.79618 80.4958 12.1785 84.4252 15.165L82.801 17.8596C72.1337 17.3787 57.9172 16.7845 52.0825 16.1254L49.1183 3.78554ZM15.5286 32.6406C13.9006 32.6406 12.3392 33.2873 11.188 34.4385C10.0368 35.5897 9.39002 37.1511 9.39002 38.7792C9.39002 40.4072 10.0368 41.9686 11.188 43.1198C12.3392 44.271 13.9006 44.9178 15.5286 44.9178C17.1567 44.9178 18.7181 44.271 19.8693 43.1198C21.0205 41.9686 21.6672 40.4072 21.6672 38.7792C21.6672 37.1511 21.0205 35.5897 19.8693 34.4385C18.7181 33.2873 17.1567 32.6406 15.5286 32.6406ZM97.3767 32.6406C95.7486 32.6406 94.1872 33.2873 93.036 34.4385C91.8848 35.5897 91.2381 37.1511 91.2381 38.7792C91.2381 40.4072 91.8848 41.9686 93.036 43.1198C94.1872 44.271 95.7486 44.9178 97.3767 44.9178C99.0047 44.9178 100.566 44.271 101.717 43.1198C102.869 41.9686 103.515 40.4072 103.515 38.7792C103.515 37.1511 102.869 35.5897 101.717 34.4385C100.566 33.2873 99.0047 32.6406 97.3767 32.6406Z" fill="white"/>
</svg>
