<svg width="150" height="54" viewBox="0 0 150 54" fill="none" xmlns="http://www.w3.org/2000/svg">
<path d="M54.0129 0.000562762C45.135 -0.0229926 35.1351 0.69111 23.4972 2.48318C22.1235 2.67534 8.88912 10.2245 5.3211 15.4349C1.75308 20.6456 0.53254 30.564 0.53254 30.564C-0.430751 34.6257 0.154415 41.3393 0.423132 41.9921C0.785761 43.4054 2.83446 44.5915 6.3532 45.4491C6.76356 38.9227 12.172 33.8372 18.7117 33.8292C25.5589 33.8292 31.1093 39.3802 31.1093 46.2268C31.1049 46.7735 31.0643 47.3194 30.9878 47.8608C31.1707 47.8632 31.3783 47.8682 31.5519 47.8701L105.71 48.4868C105.569 47.7416 105.497 46.9851 105.495 46.2268C105.495 39.3802 111.046 33.8292 117.893 33.8292C124.74 33.8292 130.29 39.3802 130.29 46.2268C130.29 47.0537 130.208 47.8787 130.043 48.6889L149.317 48.8492C149.726 41.7788 151.443 34.3533 147.14 28.17C145.449 25.7401 137.244 21.3396 116.447 18.0474C105.702 12.6514 95.2153 6.53315 83.7949 3.02712C74.9896 1.28061 65.4279 0.0306269 54.0129 0.000562762ZM48.6828 3.71488C50.5419 3.72851 52.2471 3.80476 53.6462 3.96593L55.9047 18.9521C43.064 17.3736 29.9792 15.9572 23.0623 10.4288C23.1708 8.72412 25.5294 6.25638 28.1782 5.31292C29.6783 4.77859 40.6275 3.65599 48.6832 3.71488H48.6828ZM59.4145 3.82273C67.1667 3.90456 78.6406 4.65647 86.5348 8.14329C90.3167 9.89444 97.4366 13.9931 102.198 17.6119L100.23 20.8771C87.3037 20.2945 70.0767 19.5745 63.0064 18.7758L59.4145 3.82273ZM18.7117 38.7882C16.7389 38.7882 14.8469 39.5719 13.4519 40.9669C12.0569 42.3619 11.2732 44.2539 11.2732 46.2268C11.2732 48.1996 12.0569 50.0916 13.4519 51.4866C14.8469 52.8816 16.7389 53.6653 18.7117 53.6653C20.6845 53.6653 22.5766 52.8816 23.9716 51.4866C25.3666 50.0916 26.1503 48.1996 26.1503 46.2268C26.1503 44.2539 25.3666 42.3619 23.9716 40.9669C22.5766 39.5719 20.6845 38.7882 18.7117 38.7882ZM117.892 38.7882C115.919 38.7882 114.027 39.5719 112.632 40.9669C111.237 42.3619 110.454 44.2539 110.454 46.2268C110.454 48.1996 111.237 50.0916 112.632 51.4866C114.027 52.8816 115.919 53.6653 117.892 53.6653C119.865 53.6653 121.757 52.8816 123.152 51.4866C124.547 50.0916 125.331 48.1996 125.331 46.2268C125.331 44.2539 124.547 42.3619 123.152 40.9669C121.757 39.5719 119.865 38.7882 117.892 38.7882Z" fill="white"/>
</svg>
